<svg width="156" height="89" viewBox="0 0 156 89" fill="none" xmlns="http://www.w3.org/2000/svg">
<path d="M78 69C74.7 69 72 66.416 72 63.2578V25.7422C72 22.584 74.7 20 78 20C81.3 20 84 22.584 84 25.7422V63.2578C84 66.3203 81.3 69 78 69Z" fill="url(#paint0_linear_1_105)"/>
<path d="M24 69C20.7 69 18 66.416 18 63.2578V25.7422C18 22.584 20.7 20 24 20C27.3 20 30 22.584 30 25.7422V63.2578C30 66.3203 27.3 69 24 69Z" fill="url(#paint1_linear_1_105)"/>
<path d="M96 87C92.7 87 90 83.6496 90 79.5547V9.44525C90 5.35036 92.7 2 96 2C99.3 2 102 5.35036 102 9.44525V79.5547C102 83.6496 99.3 87 96 87Z" fill="url(#paint2_linear_1_105)"/>
<path d="M150 52C146.7 52 144 49.3529 144 46.1176V42.8824C144 39.6471 146.7 37 150 37C153.3 37 156 39.6471 156 42.8824V46.1176C156 49.3529 153.3 52 150 52Z" fill="url(#paint3_linear_1_105)"/>
<path d="M132 59C128.7 59 126 56.5531 126 53.5625V35.4375C126 32.4469 128.7 30 132 30C135.3 30 138 32.4469 138 35.4375V53.5625C138 56.5531 135.3 59 132 59Z" fill="url(#paint4_linear_1_105)"/>
<path d="M60 61C56.7 61 54 58.2156 54 54.8125V34.1875C54 30.7844 56.7 28 60 28C63.3 28 66 30.7844 66 34.1875V54.8125C66 58.2156 63.3 61 60 61Z" fill="url(#paint5_linear_1_105)"/>
<path d="M6 52C2.7 52 0 49.3529 0 46.1176V42.8824C0 39.6471 2.7 37 6 37C9.3 37 12 39.6471 12 42.8824V46.1176C12 49.3529 9.3 52 6 52Z" fill="url(#paint6_linear_1_105)"/>
<path d="M114 85C110.7 85 108 81.8073 108 77.9051V11.0949C108 7.1927 110.7 4 114 4C117.3 4 120 7.1927 120 11.0949V77.9051C120 81.8073 117.3 85 114 85Z" fill="url(#paint7_linear_1_105)"/>
<path d="M42 89C38.7 89 36 85.492 36 81.2044V7.79562C36 3.50803 38.7 0 42 0C45.3 0 48 3.50803 48 7.79562V81.2044C48 85.492 45.3 89 42 89Z" fill="url(#paint8_linear_1_105)"/>
<defs>
<linearGradient id="paint0_linear_1_105" x1="72.5625" y1="20" x2="87.6988" y2="21.1705" gradientUnits="userSpaceOnUse">
<stop stop-color="#BCE8FF"/>
<stop offset="0.485577" stop-color="#DAF4FF" stop-opacity="0.94"/>
<stop offset="0.783654" stop-color="#BFD8FF" stop-opacity="0.895"/>
<stop offset="1" stop-color="#A4BCFF" stop-opacity="0.85"/>
</linearGradient>
<linearGradient id="paint1_linear_1_105" x1="18.5625" y1="20" x2="33.6988" y2="21.1705" gradientUnits="userSpaceOnUse">
<stop stop-color="#BCE8FF"/>
<stop offset="0.485577" stop-color="#DAF4FF" stop-opacity="0.94"/>
<stop offset="0.783654" stop-color="#BFD8FF" stop-opacity="0.895"/>
<stop offset="1" stop-color="#A4BCFF" stop-opacity="0.85"/>
</linearGradient>
<linearGradient id="paint2_linear_1_105" x1="90.5625" y1="2" x2="105.759" y2="2.67747" gradientUnits="userSpaceOnUse">
<stop stop-color="#BCE8FF"/>
<stop offset="0.485577" stop-color="#DAF4FF" stop-opacity="0.94"/>
<stop offset="0.783654" stop-color="#BFD8FF" stop-opacity="0.895"/>
<stop offset="1" stop-color="#A4BCFF" stop-opacity="0.85"/>
</linearGradient>
<linearGradient id="paint3_linear_1_105" x1="144.563" y1="37" x2="158.876" y2="40.6159" gradientUnits="userSpaceOnUse">
<stop stop-color="#BCE8FF"/>
<stop offset="0.485577" stop-color="#DAF4FF" stop-opacity="0.94"/>
<stop offset="0.783654" stop-color="#BFD8FF" stop-opacity="0.895"/>
<stop offset="1" stop-color="#A4BCFF" stop-opacity="0.85"/>
</linearGradient>
<linearGradient id="paint4_linear_1_105" x1="126.563" y1="30" x2="141.534" y2="31.9562" gradientUnits="userSpaceOnUse">
<stop stop-color="#BCE8FF"/>
<stop offset="0.485577" stop-color="#DAF4FF" stop-opacity="0.94"/>
<stop offset="0.783654" stop-color="#BFD8FF" stop-opacity="0.895"/>
<stop offset="1" stop-color="#A4BCFF" stop-opacity="0.85"/>
</linearGradient>
<linearGradient id="paint5_linear_1_105" x1="54.5625" y1="28" x2="69.5912" y2="29.7257" gradientUnits="userSpaceOnUse">
<stop stop-color="#BCE8FF"/>
<stop offset="0.485577" stop-color="#DAF4FF" stop-opacity="0.94"/>
<stop offset="0.783654" stop-color="#BFD8FF" stop-opacity="0.895"/>
<stop offset="1" stop-color="#A4BCFF" stop-opacity="0.85"/>
</linearGradient>
<linearGradient id="paint6_linear_1_105" x1="0.5625" y1="37" x2="14.8759" y2="40.6159" gradientUnits="userSpaceOnUse">
<stop stop-color="#BCE8FF"/>
<stop offset="0.485577" stop-color="#DAF4FF" stop-opacity="0.94"/>
<stop offset="0.783654" stop-color="#BFD8FF" stop-opacity="0.895"/>
<stop offset="1" stop-color="#A4BCFF" stop-opacity="0.85"/>
</linearGradient>
<linearGradient id="paint7_linear_1_105" x1="108.563" y1="4" x2="123.756" y2="4.71078" gradientUnits="userSpaceOnUse">
<stop stop-color="#BCE8FF"/>
<stop offset="0.485577" stop-color="#DAF4FF" stop-opacity="0.94"/>
<stop offset="0.783654" stop-color="#BFD8FF" stop-opacity="0.895"/>
<stop offset="1" stop-color="#A4BCFF" stop-opacity="0.85"/>
</linearGradient>
<linearGradient id="paint8_linear_1_105" x1="36.5625" y1="-2.06882e-06" x2="51.7618" y2="0.64713" gradientUnits="userSpaceOnUse">
<stop stop-color="#BCE8FF"/>
<stop offset="0.485577" stop-color="#DAF4FF" stop-opacity="0.94"/>
<stop offset="0.783654" stop-color="#BFD8FF" stop-opacity="0.895"/>
<stop offset="1" stop-color="#A4BCFF" stop-opacity="0.85"/>
</linearGradient>
</defs>
</svg>
